<svg width="433" height="497" viewBox="0 0 433 497" fill="none" xmlns="http://www.w3.org/2000/svg">
<rect x="104.721" y="81.9508" width="242.557" height="400.131" rx="55" fill="#D7D8F4"/>
<path d="M400.5 108.6C411.325 108.6 420.1 99.8248 420.1 89C420.1 78.1752 411.325 69.4 400.5 69.4C389.675 69.4 380.9 78.1752 380.9 89C380.9 99.8248 389.675 108.6 400.5 108.6Z" fill="#FC3692"/>
<path d="M407.2 83.9C405.6 82.3 403 82.4 401.4 84L400.4 85.1L399.3 84C397.7 82.4 395.1 82.4 393.5 84C391.9 85.6 391.9 88.2 393.5 89.8L397.5 93.7C398.1 94.3 398.9 94.7 399.7 94.8C401 95 402.3 94.6 403.2 93.6L407.1 89.6C408.8 88.1 408.8 85.5 407.2 83.9Z" fill="white"/>
<path d="M51.5 251C62.2696 251 71 242.27 71 231.5C71 220.73 62.2696 212 51.5 212C40.7304 212 32 220.73 32 231.5C32 242.27 40.7304 251 51.5 251Z" fill="#FC3692"/>
<path d="M58.1299 226.43C56.5699 224.87 53.9699 224.87 52.4099 226.43L51.3699 227.47L50.3299 226.43C48.7699 224.87 46.1699 224.87 44.6099 226.43C43.0499 227.99 43.0499 230.59 44.6099 232.15L48.5099 236.05C49.1599 236.7 49.9399 237.09 50.7199 237.22C52.0199 237.35 53.3199 236.96 54.2299 236.05L58.1299 232.15C59.6899 230.59 59.6899 227.99 58.1299 226.43Z" fill="white"/>
<path d="M60.6 146.8C63.4167 146.8 65.7 144.517 65.7 141.7C65.7 138.883 63.4167 136.6 60.6 136.6C57.7833 136.6 55.5 138.883 55.5 141.7C55.5 144.517 57.7833 146.8 60.6 146.8Z" stroke="#FBFAFF" stroke-width="1.5" stroke-miterlimit="10" stroke-linecap="round" stroke-linejoin="round"/>
<path d="M78.5 73C85.9558 73 92 66.9558 92 59.4999C92 52.0441 85.9558 46 78.5 46C71.0442 46 65 52.0441 65 59.4999C65 66.9558 71.0442 73 78.5 73Z" stroke="#FBFAFF" stroke-width="1.5" stroke-miterlimit="10" stroke-linecap="round" stroke-linejoin="round"/>
<path d="M265.1 53.2C267.917 53.2 270.2 50.9166 270.2 48.1C270.2 45.2833 267.917 43 265.1 43C262.283 43 260 45.2833 260 48.1C260 50.9166 262.283 53.2 265.1 53.2Z" stroke="#434AD8" stroke-width="1.5" stroke-miterlimit="10" stroke-linecap="round" stroke-linejoin="round"/>
<path d="M397.9 145.5H390.4V153.1H397.9V145.5Z" stroke="#D7D8F4" stroke-width="1.5" stroke-miterlimit="10" stroke-linecap="round" stroke-linejoin="round"/>
<path d="M355 22H336V41H355V22Z" stroke="#D7D8F4" stroke-width="1.5" stroke-miterlimit="10" stroke-linecap="round" stroke-linejoin="round"/>
<path d="M187.3 42.6C189.675 42.6 191.6 40.6748 191.6 38.3C191.6 35.9251 189.675 34 187.3 34C184.925 34 183 35.9251 183 38.3C183 40.6748 184.925 42.6 187.3 42.6Z" fill="#434AD8"/>
<path fill-rule="evenodd" clip-rule="evenodd" d="M313.049 79H138.951C118.417 79 101.77 95.6462 101.77 116.18L101.77 123.262C100.793 123.262 100 124.055 100 125.033V140.377C100 141.355 100.793 142.148 101.77 142.148V159.852C100.793 159.852 100 160.645 100 161.623V194.672C100 195.65 100.793 196.443 101.77 196.443V205.885C100.793 205.885 100 206.678 100 207.656V240.705C100 241.683 100.793 242.475 101.77 242.475L101.77 453.754C101.77 474.288 118.417 490.934 138.951 490.934H313.049C333.583 490.934 350.23 474.288 350.23 453.754V230.672C351.207 230.672 352 229.879 352 228.902V173.426C352 172.448 351.207 171.656 350.23 171.656V116.18C350.23 95.6462 333.583 79 313.049 79ZM104.721 116.18C104.721 97.2759 120.046 81.9508 138.951 81.9508H313.049C331.954 81.9508 347.279 97.2759 347.279 116.18V453.754C347.279 472.659 331.954 487.984 313.049 487.984H138.951C120.046 487.984 104.721 472.659 104.721 453.754V116.18Z" fill="#AABBCC"/>
<path fill-rule="evenodd" clip-rule="evenodd" d="M336.656 116.18C336.656 103.138 326.092 92.5738 313.049 92.5738H292.098C289.491 92.5738 287.377 94.6876 287.377 97.2951V97.8852C287.377 105.085 281.593 110.869 274.393 110.869H177.606C170.406 110.869 164.623 105.085 164.623 97.8852V97.2951C164.623 94.6876 162.509 92.5738 159.902 92.5738H138.951C125.908 92.5738 115.344 103.138 115.344 116.18V453.754C115.344 466.797 125.908 477.361 138.951 477.361H313.049C326.092 477.361 336.656 466.797 336.656 453.754V116.18ZM138.951 81.9508H313.049C331.934 81.9508 347.279 97.2951 347.279 116.18V453.754C347.279 472.639 331.934 487.984 313.049 487.984H138.951C120.065 487.984 104.721 472.639 104.721 453.754V116.18C104.721 97.2951 120.065 81.9508 138.951 81.9508Z" fill="black"/>
<path opacity="0.6" fill-rule="evenodd" clip-rule="evenodd" d="M186.754 463.787C186.754 462.972 187.415 462.311 188.23 462.311H264.361C265.176 462.311 265.836 462.972 265.836 463.787C265.836 464.602 265.176 465.262 264.361 465.262H188.23C187.415 465.262 186.754 464.602 186.754 463.787Z" fill="black"/>
<path d="M256.689 97.8852C256.689 100.167 254.839 102.016 252.557 102.016C250.276 102.016 248.426 100.167 248.426 97.8852C248.426 95.6037 250.276 93.7541 252.557 93.7541C254.839 93.7541 256.689 95.6037 256.689 97.8852Z" fill="#4F4F4F"/>
<path d="M212.721 96.1147C211.744 96.1147 210.951 96.9074 210.951 97.8852C210.951 98.8631 211.744 99.6557 212.721 99.6557H238.689C239.666 99.6557 240.459 98.8631 240.459 97.8852C240.459 96.9074 239.666 96.1147 238.689 96.1147H212.721Z" fill="#4F4F4F"/>
<path d="M174.121 197.874H275.941L291.987 207.646C294.175 208.959 296.801 207.355 296.801 204.875C296.801 195.54 296.947 176.725 296.947 176.725C296.947 165.202 287.465 155.721 275.941 155.721H174.121C162.597 155.721 153.115 165.202 153.115 176.871C153.115 188.393 162.597 197.874 174.121 197.874Z" fill="#330A67"/>
<path d="M177.184 346.939H279.005L295.051 356.712C297.239 358.024 299.865 356.42 299.865 353.94C299.865 344.606 300.01 296.035 300.01 296.035C300.01 284.513 290.529 275.032 279.005 275.032H177.184C165.66 275.032 156.178 284.513 156.178 296.035V327.832C156.178 339.646 165.66 346.939 177.184 346.939Z" fill="#330A67"/>
<path d="M211.756 250.528H282.505L293.592 257.383C295.051 258.258 296.947 257.237 296.947 255.487C296.947 248.924 297.093 235.942 297.093 235.942C297.093 227.92 290.528 221.357 282.505 221.357H211.756C203.733 221.357 197.169 227.92 197.169 235.942C197.023 243.964 203.733 250.528 211.756 250.528Z" fill="#FC3692"/>
<path d="M259.895 406.449H282.505L293.592 413.304C295.051 414.179 296.947 413.158 296.947 411.408C296.947 404.844 297.093 391.863 297.093 391.863C297.093 383.841 290.528 377.277 282.505 377.277H259.895C251.872 377.277 245.307 383.841 245.307 391.863C245.161 399.885 251.726 406.449 259.895 406.449Z" fill="#FC3692"/>
<path d="M170.036 171.62H273.753C274.628 171.62 275.358 170.89 275.358 170.015V168.848C275.358 167.973 274.628 167.244 273.753 167.244H170.036C169.161 167.244 168.432 167.973 168.432 168.848V170.015C168.432 170.89 169.161 171.62 170.036 171.62Z" fill="white"/>
<path d="M221.238 180.517H274.19C274.774 180.517 275.357 179.933 275.357 179.35V177.308C275.357 176.725 274.774 176.141 274.19 176.141H221.238C220.655 176.141 220.071 176.725 220.071 177.308V179.35C220.071 179.933 220.655 180.517 221.238 180.517Z" fill="white"/>
<path d="M170.036 294.723H273.753C274.628 294.723 275.358 293.993 275.358 293.118V291.951C275.358 291.076 274.628 290.347 273.753 290.347H170.036C169.161 290.347 168.432 291.076 168.432 291.951V293.118C168.432 293.993 169.161 294.723 170.036 294.723Z" fill="white"/>
<path d="M170.036 304.933H273.753C274.628 304.933 275.358 304.203 275.358 303.328V302.161C275.358 301.286 274.628 300.557 273.753 300.557H170.036C169.161 300.557 168.432 301.286 168.432 302.161V303.328C168.432 304.203 169.161 304.933 170.036 304.933Z" fill="white"/>
<path d="M170.036 315.58H273.753C274.628 315.58 275.358 314.851 275.358 313.976V312.663C275.358 311.788 274.628 311.058 273.753 311.058H170.036C169.161 311.058 168.432 311.788 168.432 312.663V313.83C168.432 314.851 169.161 315.58 170.036 315.58Z" fill="white"/>
<path d="M228.532 326.811H274.191C274.774 326.811 275.212 326.373 275.212 325.79V323.602C275.212 323.019 274.774 322.581 274.191 322.581H228.532C227.948 322.581 227.511 323.019 227.511 323.602V325.79C227.511 326.228 227.948 326.811 228.532 326.811Z" fill="white"/>
<path d="M221.238 238.276H274.19C274.774 238.276 275.357 237.693 275.357 237.109V235.067C275.357 234.484 274.774 233.9 274.19 233.9H221.238C220.655 233.9 220.071 234.484 220.071 235.067V237.109C220.071 237.839 220.655 238.276 221.238 238.276Z" fill="white"/>
<path d="M277.254 388.508C276.962 387.05 276.087 384.278 273.607 383.695C271.565 383.112 269.085 384.424 267.626 386.758C265.876 384.278 263.25 383.112 261.354 383.987C258.874 385.008 259.02 389.092 259.02 389.675C259.311 395.947 267.626 399.593 268.21 399.885C274.337 396.968 277.837 392.446 277.254 388.508Z" fill="white"/>
<g clip-path="url(#clip0)">
<path d="M329.865 464.13L321.682 448.896L345.51 424.306L353.693 439.54L329.865 464.13Z" fill="#E0A396"/>
<path d="M325.292 444.098L336.364 464.61C336.364 464.61 332.152 467.369 334.92 474.207C337.688 481.044 336.243 486.442 331.911 489.441L309.888 448.776C309.888 448.776 315.544 446.257 325.292 444.098Z" fill="white"/>
<path d="M331.802 489.384L309.948 448.799L307.085 450.331L328.939 490.916L331.802 489.384Z" fill="#070924"/>
<path d="M317.59 446.017C317.59 446.017 320.96 454.174 314.582 457.533" stroke="#070924" stroke-width="0.5616" stroke-miterlimit="10"/>
<path d="M333.837 468.449C333.837 468.449 340.335 458.373 335.642 455.854C330.106 452.735 333.837 468.449 333.837 468.449Z" stroke="#070924" stroke-width="0.5616" stroke-miterlimit="10" stroke-linecap="round" stroke-linejoin="round"/>
<path d="M333.837 468.449C333.837 468.449 344.788 468.689 343.464 474.207C342.14 479.844 333.837 468.449 333.837 468.449Z" stroke="#070924" stroke-width="0.5616" stroke-miterlimit="10" stroke-linecap="round" stroke-linejoin="round"/>
<path d="M333.837 468.329C333.837 468.329 333.115 467.009 329.865 465.57" stroke="#070924" stroke-width="0.5616" stroke-miterlimit="10" stroke-linecap="round" stroke-linejoin="round"/>
<path d="M333.957 471.567C333.957 471.567 332.513 469.288 329.986 468.809" stroke="#070924" stroke-width="0.5616" stroke-miterlimit="10" stroke-linecap="round" stroke-linejoin="round"/>
<path d="M375.837 282.401L377.883 310.11L404.96 378.484C408.089 387.12 407.487 394.198 401.47 401.155L358.266 447.817L339.011 423.826L374.393 382.562L352.49 338.059L356.822 290.918L375.837 282.401Z" fill="#E93086"/>
<path d="M358.146 447.697H340.817V477.325H358.146V447.697Z" fill="#E0A396"/>
<path d="M338.289 471.927H361.636C361.636 471.927 361.997 476.965 369.458 477.685C376.799 478.405 380.891 482.363 381.493 487.521H335.281C335.281 487.641 335.642 481.404 338.289 471.927Z" fill="white"/>
<path d="M381.493 487.641H335.281V490.88H381.493V487.641Z" fill="#070924"/>
<path d="M336.484 479.604C336.484 479.604 345.269 480.444 345.269 487.761" stroke="#070924" stroke-width="0.5616" stroke-miterlimit="10"/>
<path d="M363.923 475.886C363.923 475.886 358.146 465.45 353.693 468.329C348.278 471.687 363.923 475.886 363.923 475.886Z" stroke="#070924" stroke-width="0.5616" stroke-miterlimit="10" stroke-linecap="round" stroke-linejoin="round"/>
<path d="M363.923 475.886C363.923 475.886 369.338 466.29 373.55 470.128C377.882 473.967 363.923 475.886 363.923 475.886Z" stroke="#070924" stroke-width="0.5616" stroke-miterlimit="10" stroke-linecap="round" stroke-linejoin="round"/>
<path d="M363.802 475.886C363.802 475.886 362.358 475.886 359.47 478.045" stroke="#070924" stroke-width="0.5616" stroke-miterlimit="10" stroke-linecap="round" stroke-linejoin="round"/>
<path d="M366.691 477.325C366.691 477.325 364.043 477.445 362.358 479.484" stroke="#070924" stroke-width="0.5616" stroke-miterlimit="10" stroke-linecap="round" stroke-linejoin="round"/>
<path d="M371.384 297.875L365.607 460.532H334.92L332.513 333.021C332.513 333.021 324.811 316.108 334.679 297.275L371.384 297.875Z" fill="#FC3692"/>
<path d="M366.69 435.462L367.774 335.18L374.392 318.387" stroke="#B42D58" stroke-width="1.0002" stroke-miterlimit="10" stroke-linecap="round" stroke-linejoin="round"/>
<path d="M379.447 242.816L391.601 271.245C394.008 276.883 391.24 283.481 385.464 285.76L384.862 286C382.094 287.079 378.965 285.4 378.364 282.521L372.587 255.292L379.447 242.816Z" fill="#D7978C"/>
<path d="M373.67 234.42C373.67 234.42 380.048 235.979 385.103 251.213L370.662 256.491L373.67 234.42Z" fill="#434AD8"/>
<path d="M385.825 265.008L418.558 247.854L428.306 255.052L388.352 283.84L385.825 265.008Z" fill="#D7978C"/>
<path d="M427.825 220.745C426.14 226.743 421.567 244.136 420.123 249.294C419.882 250.134 419.16 250.613 418.318 250.613L403.275 249.294C402.192 249.174 401.47 248.094 401.71 247.015L410.014 218.586C410.255 217.746 410.977 217.266 411.819 217.386L426.14 218.706C427.343 218.706 428.186 219.785 427.825 220.745Z" fill="#E5E5E5"/>
<path d="M432.398 249.654C430.472 255.411 424.335 258.41 418.558 256.611C412.782 254.692 409.893 245.935 411.819 240.177C413.744 234.42 422.53 232.74 426.381 234.899C431.555 237.778 434.323 243.896 432.398 249.654Z" fill="#D7978C"/>
<path d="M351.046 232.26H339.011L331.309 302.313L379.567 299.314L377.04 241.257L373.67 234.42L351.046 232.26Z" fill="#434AD8"/>
<path d="M377.521 253.732L377.16 245.455" stroke="#2C35B1" stroke-width="0.9583" stroke-miterlimit="10"/>
<path d="M338.53 264.528L332.272 297.275C331.67 302.433 326.857 306.152 321.682 305.312C316.627 304.592 313.137 299.914 313.859 294.756C315.424 285.16 319.275 267.767 320.96 262.369L338.53 264.528Z" fill="#E0A396"/>
<path d="M339.011 232.26C339.011 232.26 326.736 231.541 322.524 245.695C318.312 259.73 316.627 266.087 316.627 266.087H342.622L339.011 232.26Z" fill="#434AD8"/>
<path d="M339.011 266.087L342.381 248.574" stroke="#2C35B1" stroke-width="0.9583" stroke-miterlimit="10"/>
<path d="M373.234 275.823C376.825 270.809 375.657 263.842 370.626 260.263C365.595 256.684 358.606 257.848 355.016 262.863C351.425 267.877 352.592 274.843 357.623 278.422C362.654 282.001 369.643 280.838 373.234 275.823Z" fill="#E0A396"/>
<path d="M365.969 258.41L384.622 263.328C385.344 263.568 385.946 264.288 385.825 265.008C385.825 265.967 384.983 266.567 384.14 266.567L369.338 266.207L365.969 258.41Z" fill="#E0A396"/>
<path d="M322.524 286.959L357.424 260.45L362.117 273.404L329.624 302.673L322.524 286.959Z" fill="#E0A396"/>
<path d="M336.243 276.523L327.579 282.761" stroke="#CB8379" stroke-width="0.9583" stroke-miterlimit="10" stroke-linecap="round" stroke-linejoin="round"/>
<path d="M370.662 225.543L364.284 244.856L351.046 232.26L359.109 213.068L370.662 225.543Z" fill="#E0A396"/>
<path d="M387.024 212.057C387.341 208.96 385.078 206.193 381.97 205.877C378.862 205.562 376.086 207.817 375.77 210.915C375.453 214.013 377.716 216.78 380.824 217.095C383.932 217.411 386.708 215.155 387.024 212.057Z" fill="#070924"/>
<path d="M367.653 234.42L359.349 220.865L371.504 224.104L367.653 234.42Z" fill="#070924"/>
<path d="M369.819 227.222C377.16 227.942 383.659 222.544 384.14 215.227L385.103 201.432C385.584 193.995 380.169 187.518 372.708 186.678C365.006 185.839 356.943 191.236 356.1 198.793L355.499 210.549C355.137 219.066 361.395 226.263 369.819 227.222Z" fill="#E0A396"/>
<path d="M358.507 211.988C358.507 211.988 364.163 211.628 362.839 200.113C362.839 200.113 367.894 195.915 375.235 199.393C382.696 202.752 387.029 203.232 390.158 197.354C394.37 189.557 384.381 174.083 364.284 187.158C359.951 189.917 351.647 191.116 349.963 197.234C348.398 203.112 353.332 213.908 358.507 211.988Z" fill="#070924"/>
<path d="M359.687 209.097C360.003 206 357.74 203.233 354.632 202.917C351.525 202.602 348.749 204.857 348.432 207.955C348.116 211.053 350.379 213.82 353.486 214.135C356.594 214.451 359.37 212.195 359.687 209.097Z" fill="#E0A396"/>
<path d="M355.86 210.429C355.86 210.429 356.221 206.351 352.249 206.59" stroke="#070924" stroke-width="0.6099" stroke-miterlimit="10" stroke-linecap="round" stroke-linejoin="round"/>
</g>
<g clip-path="url(#clip1)">
<path d="M89.2881 314.001C89.2881 314.001 78.5023 317.574 79.1695 336.667C79.9478 355.759 71.386 362.347 78.6135 380.211L97.0716 382.444L104.077 370.386L105.745 322.375L89.2881 314.001Z" fill="white"/>
<path d="M75.0554 416.833V496.442" stroke="#070924" stroke-width="1.1443" stroke-miterlimit="10"/>
<path d="M99.9624 416.833V496.442" stroke="#070924" stroke-width="1.1443" stroke-miterlimit="10"/>
<path d="M125.759 416.833V496.442" stroke="#070924" stroke-width="1.1443" stroke-miterlimit="10"/>
<path d="M65.4782 422.447H137.086V413.069H65.4782V422.447Z" fill="#EBB7B7"/>
<path d="M25.7969 476.344L40.0296 483.825L51.5936 459.038L37.3609 451.557L25.7969 476.344Z" fill="#E0A396"/>
<path d="M43.4766 480.029L24.3514 469.98C24.3514 469.98 21.9052 474 15.456 471.432C9.11798 468.864 4.1143 470.315 1.33447 474.446L39.1401 494.32C39.2513 494.32 41.5863 489.073 43.4766 480.029Z" fill="white"/>
<path d="M0.0570741 477.203L37.8918 497.071L39.2831 494.4L1.4483 474.532L0.0570741 477.203Z" fill="#070924"/>
<path d="M41.6975 487.063C41.6975 487.063 34.1364 484.048 31.0229 489.966" stroke="#070924" stroke-width="0.5616" stroke-miterlimit="10"/>
<path d="M20.9043 472.325C20.9043 472.325 22.1274 472.995 23.5729 476.009" stroke="#070924" stroke-width="0.5616" stroke-miterlimit="10" stroke-linecap="round" stroke-linejoin="round"/>
<path d="M17.9021 472.213C17.9021 472.213 20.0148 473.441 20.4595 475.898" stroke="#070924" stroke-width="0.5616" stroke-miterlimit="10" stroke-linecap="round" stroke-linejoin="round"/>
<path d="M66.9383 424.872L51.816 467.189L28.0208 460.49L46.9235 401.537L60.0443 408.125L66.9383 424.872Z" fill="#3743C4"/>
<path d="M70.7189 483.602H86.8419L78.9472 456.693H62.8242L70.7189 483.602Z" fill="#E0A396"/>
<path d="M88.1761 478.577H66.6046C66.6046 478.577 66.2711 483.267 59.3771 483.937C52.5943 484.607 48.8138 488.291 48.2578 493.092H90.9559C91.0671 493.204 90.6223 487.398 88.1761 478.577Z" fill="white"/>
<path d="M48.3627 496.245H91.0608V493.23H48.3627V496.245Z" fill="#070924"/>
<path d="M89.8439 485.611C89.8439 485.611 81.7268 486.393 81.7268 493.204" stroke="#070924" stroke-width="0.5616" stroke-miterlimit="10"/>
<path d="M64.6033 482.262C64.6033 482.262 65.9376 482.262 68.6062 484.272" stroke="#070924" stroke-width="0.5616" stroke-miterlimit="10" stroke-linecap="round" stroke-linejoin="round"/>
<path d="M61.9346 483.602C61.9346 483.602 64.3808 483.713 65.9375 485.611" stroke="#070924" stroke-width="0.5616" stroke-miterlimit="10" stroke-linecap="round" stroke-linejoin="round"/>
<path d="M93.6245 368.265L91.067 378.872L53.0391 380.211L57.4868 412.926H114.306C116.197 412.926 118.198 412.479 119.977 411.697C127.65 408.236 145.885 396.624 130.874 368.265H93.6245Z" fill="#434AD8"/>
<path d="M72.3867 402.877L87.9537 464.286L59.1547 465.626L39.0288 398.857C36.0266 389.702 42.9205 380.211 52.4831 380.211H60.3778L72.3867 402.877Z" fill="#434AD8"/>
<path d="M91.0671 378.872H100.407" stroke="#3743C4" stroke-width="1.0187" stroke-miterlimit="10"/>
<path d="M91.0671 378.872H100.407" stroke="#3743C4" stroke-width="1.0187" stroke-miterlimit="10"/>
<path d="M101.408 310.54C101.408 310.54 90.7338 311.992 86.9532 315.676C83.1727 319.361 81.3936 338.788 84.2846 345.934C87.1756 353.08 93.4024 359.891 93.736 371.167L128.206 367.93L132.098 328.07L129.54 317.016C128.539 312.661 130.986 310.652 126.76 310.093L113.417 308.642L101.408 310.54Z" fill="white"/>
<path d="M87.0644 326.283C87.0644 326.283 79.3921 335.885 87.954 357.769L93.736 371.167" stroke="#F2D6D3" stroke-width="0.965" stroke-miterlimit="10"/>
<path d="M109.636 354.643L103.41 347.609C102.52 346.604 101.075 345.934 99.7402 345.934H89.844L92.5127 349.06L96.5156 349.73C97.0716 349.73 97.4052 350.065 97.4052 350.623C97.4052 351.182 96.9604 351.405 96.4044 351.405H78.7248C78.7248 351.405 77.6128 356.764 86.6194 360.337C95.6261 363.91 101.186 360.337 109.636 363.129V354.643Z" fill="#E0A396"/>
<path d="M96.4045 351.517L86.7307 338.118C86.5083 337.895 86.2859 337.783 85.9524 337.783L71.4973 338.453C70.7189 338.453 70.2742 339.346 70.7189 340.016L78.7248 351.628L96.4045 351.517Z" fill="#FC3692"/>
<path d="M127.761 310.205C127.761 310.205 137.324 310.875 139.881 328.07C142.438 345.264 149.444 348.167 151 363.128C152.557 378.09 125.759 364.692 125.759 364.692C125.759 364.692 116.975 333.206 118.977 321.147C118.865 321.035 114.195 307.749 127.761 310.205Z" fill="white"/>
<path d="M108.969 351.517C108.191 351.293 104.188 370.498 104.188 370.498C104.188 370.498 123.424 381.328 138.658 379.43C155.448 377.308 149.999 357.992 149.999 357.992L136.545 354.978C136.545 354.866 127.65 357.211 108.969 351.517Z" fill="white"/>
<path d="M108.525 352.187L124.648 354.978C124.648 354.978 119.199 341.691 115.419 326.06" stroke="#F2D6D3" stroke-width="0.965" stroke-miterlimit="10"/>
<path d="M124.759 354.978C124.759 354.978 129.54 356.541 131.208 360.449" stroke="#F2D6D3" stroke-width="0.965" stroke-miterlimit="10"/>
<path d="M105.967 362.235L103.854 370.498" stroke="#F2D6D3" stroke-width="0.965" stroke-miterlimit="10"/>
<path d="M89.1768 302.948L99.0729 316.569L112.861 308.977L96.2931 286.2L89.1768 302.948Z" fill="#E0A396"/>
<path d="M94.959 310.875C94.7366 310.652 94.6254 300.603 94.6254 300.603L89.7329 305.069L94.959 310.875Z" fill="black"/>
<path d="M75.2777 272.802C75.2777 272.802 68.495 276.263 70.9412 285.418C70.9412 285.418 72.1644 290.219 74.9442 299.821C76.3897 304.846 81.171 308.977 87.2866 306.632C90.2888 305.516 92.9574 302.724 95.1813 299.486L98.0723 294.239C104.299 280.282 90.0664 265.767 76.2785 272.243C75.9449 272.467 75.6113 272.578 75.2777 272.802Z" fill="#E0A396"/>
<path d="M73.8322 293.457L72.8314 299.152C72.4978 299.71 73.0538 300.38 73.6098 300.268L76.5008 299.152L73.8322 293.457Z" fill="#E0A396"/>
<path d="M89.8441 285.977C89.8441 285.977 87.1755 262.641 71.0525 277.603C71.0525 277.603 74.6107 263.311 93.5135 265.321C97.5164 265.767 102.409 268.894 104.188 272.467C107.19 278.161 105.411 284.413 102.965 295.69L94.5142 290.219C93.6247 288.879 89.8441 285.977 89.8441 285.977Z" fill="#FC3692"/>
<path d="M80.3926 278.272L87.3977 290.554L89.7328 288.991L92.2902 276.486L80.3926 278.272Z" fill="#FC3692"/>
<path d="M95.4931 292.77C98.0529 291.724 99.2839 288.793 98.2426 286.223C97.2013 283.652 94.2821 282.416 91.7223 283.462C89.1625 284.507 87.9315 287.439 88.9728 290.009C90.0141 292.579 92.9333 293.816 95.4931 292.77Z" fill="#E0A396"/>
<path d="M91.9565 289.884C91.9565 289.884 90.6221 286.535 94.0691 285.753" stroke="black" stroke-width="0.7314" stroke-miterlimit="10" stroke-linecap="round" stroke-linejoin="round"/>
<path d="M112.861 308.977L95.4036 324.72L98.1834 311.88L112.861 308.977Z" fill="#E0A396"/>
<path d="M78.1687 268.224C78.1687 268.224 62.0458 276.374 66.9382 286.981C66.9382 286.981 84.8403 285.977 90.1776 278.161C90.2888 278.272 96.0708 266.326 78.1687 268.224Z" fill="#FC3692"/>
<path d="M99.5178 268.894C106.089 268.894 111.415 263.545 111.415 256.947C111.415 250.349 106.089 245 99.5178 245C92.9469 245 87.6201 250.349 87.6201 256.947C87.6201 263.545 92.9469 268.894 99.5178 268.894Z" fill="#FC3692"/>
</g>
<defs>
<clipPath id="clip0">
<rect width="126" height="309" fill="white" transform="translate(307 182)"/>
</clipPath>
<clipPath id="clip1">
<rect width="151" height="252" fill="white" transform="translate(0 245)"/>
</clipPath>
</defs>
</svg>
